# Blender v2.78 (sub 0) OBJ File: 'corering.blend'
# www.blender.org
mtllib corering.mtl
o Circle
v 0.006210 -0.079482 6.628605
v 1.299440 -0.079482 6.501233
v 2.542973 -0.079482 6.124012
v 3.689018 -0.079482 5.511437
v 4.693536 -0.079482 4.687051
v 5.517923 -0.079482 3.682533
v 6.130497 -0.079482 2.536488
v 6.507718 -0.079482 1.292956
v 6.635090 -0.079482 -0.000274
v 6.507718 -0.079482 -1.293504
v 6.130497 -0.079482 -2.537036
v 5.517923 -0.079482 -3.683083
v 4.693536 -0.079482 -4.687601
v 3.689018 -0.079482 -5.511988
v 2.542971 -0.079482 -6.124562
v 1.299439 -0.079482 -6.501783
v 0.006208 -0.079482 -6.629155
v -1.287023 -0.079482 -6.501782
v -2.530555 -0.079482 -6.124560
v -3.676602 -0.079482 -5.511985
v -4.681119 -0.079482 -4.687598
v -5.505505 -0.079482 -3.683079
v -6.118079 -0.079482 -2.537032
v -6.495299 -0.079482 -1.293499
v -6.622670 -0.079482 -0.000268
v -6.495297 -0.079482 1.292962
v -6.118074 -0.079482 2.536494
v -5.505498 -0.079482 3.682540
v -4.681110 -0.079482 4.687057
v -3.676591 -0.079482 5.511443
v -2.530544 -0.079482 6.124015
v -1.287010 -0.079482 6.501235
v 0.049787 -0.392261 4.841187
v 0.994686 -0.392261 4.748123
v 1.903273 -0.392261 4.472506
v 2.740632 -0.392261 4.024928
v 3.474583 -0.392261 3.422590
v 4.076921 -0.392261 2.688639
v 4.524498 -0.392261 1.851280
v 4.800116 -0.392261 0.942693
v 4.893180 -0.392261 -0.002206
v 4.800117 -0.392261 -0.947105
v 4.524499 -0.392261 -1.855692
v 4.076921 -0.392261 -2.693051
v 3.474583 -0.392261 -3.427003
v 2.740632 -0.392261 -4.029342
v 1.903272 -0.392261 -4.476919
v 0.994685 -0.392261 -4.752536
v 0.049785 -0.392261 -4.845600
v -0.895114 -0.392261 -4.752535
v -1.803702 -0.392261 -4.476917
v -2.641061 -0.392261 -4.029339
v -3.375012 -0.392261 -3.427001
v -3.977350 -0.392261 -2.693049
v -4.424927 -0.392261 -1.855689
v -4.700543 -0.392261 -0.947101
v -4.793607 -0.392261 -0.002202
v -4.700542 -0.392261 0.942698
v -4.424923 -0.392261 1.851285
v -3.977345 -0.392261 2.688644
v -3.375006 -0.392261 3.422594
v -2.641053 -0.392261 4.024932
v -1.803693 -0.392261 4.472508
v -0.895105 -0.392261 4.748124
v 1.299968 -0.331209 6.501210
v 0.006737 -0.331209 6.628582
v 2.543500 -0.331209 6.123988
v 3.689545 -0.331209 5.511414
v 4.694063 -0.331209 4.687028
v 5.518450 -0.331209 3.682510
v 6.131023 -0.331209 2.536464
v 6.508245 -0.331209 1.292932
v 6.635617 -0.331209 -0.000298
v 6.508245 -0.331209 -1.293528
v 6.131024 -0.331209 -2.537060
v 5.518450 -0.331209 -3.683106
v 4.694063 -0.331209 -4.687624
v 3.689545 -0.331209 -5.512011
v 2.543499 -0.331209 -6.124585
v 1.299966 -0.331209 -6.501806
v 0.006735 -0.331209 -6.629178
v -1.286496 -0.331209 -6.501805
v -2.530028 -0.331209 -6.124583
v -3.676075 -0.331209 -5.512008
v -4.680592 -0.331209 -4.687621
v -5.504978 -0.331209 -3.683103
v -6.117552 -0.331209 -2.537056
v -6.494771 -0.331209 -1.293523
v -6.622143 -0.331209 -0.000292
v -6.494770 -0.331209 1.292939
v -6.117547 -0.331209 2.536471
v -5.504971 -0.331209 3.682517
v -4.680583 -0.331209 4.687034
v -3.676064 -0.331209 5.511419
v -2.530016 -0.331209 6.123992
v -1.286483 -0.331209 6.501212
v 0.995213 -0.643987 4.748099
v 0.050314 -0.643987 4.841164
v 1.903801 -0.643987 4.472483
v 2.741159 -0.643987 4.024905
v 3.475110 -0.643987 3.422566
v 4.077449 -0.643987 2.688616
v 4.525026 -0.643987 1.851257
v 4.800643 -0.643987 0.942670
v 4.893708 -0.643987 -0.002229
v 4.800643 -0.643987 -0.947128
v 4.525026 -0.643987 -1.855715
v 4.077449 -0.643987 -2.693075
v 3.475110 -0.643987 -3.427027
v 2.741159 -0.643987 -4.029365
v 1.903800 -0.643987 -4.476942
v 0.995212 -0.643987 -4.752559
v 0.050312 -0.643987 -4.845623
v -0.894587 -0.643987 -4.752558
v -1.803175 -0.643987 -4.476941
v -2.640534 -0.643987 -4.029363
v -3.374485 -0.643987 -3.427024
v -3.976823 -0.643987 -2.693072
v -4.424400 -0.643987 -1.855712
v -4.700016 -0.643987 -0.947125
v -4.793080 -0.643987 -0.002225
v -4.700015 -0.643987 0.942674
v -4.424396 -0.643987 1.851262
v -3.976818 -0.643987 2.688621
v -3.374479 -0.643987 3.422571
v -2.640526 -0.643987 4.024909
v -1.803166 -0.643987 4.472485
v -0.894578 -0.643987 4.748101
v 0.006210 -0.079482 6.628605
v 1.299440 -0.079482 6.501233
v 2.542973 -0.079482 6.124012
v 3.689018 -0.079482 5.511437
v 4.693536 -0.079482 4.687051
v 5.517923 -0.079482 3.682533
v 6.130497 -0.079482 2.536488
v 6.507718 -0.079482 1.292956
v 6.635090 -0.079482 -0.000274
v 6.507718 -0.079482 -1.293504
v 6.130497 -0.079482 -2.537036
v 5.517923 -0.079482 -3.683083
v 4.693536 -0.079482 -4.687601
v 3.689018 -0.079482 -5.511988
v 2.542971 -0.079482 -6.124562
v 1.299439 -0.079482 -6.501783
v 0.006208 -0.079482 -6.629155
v -1.287023 -0.079482 -6.501782
v -2.530555 -0.079482 -6.124560
v -3.676602 -0.079482 -5.511985
v -4.681119 -0.079482 -4.687598
v -5.505505 -0.079482 -3.683079
v -6.118079 -0.079482 -2.537032
v -6.495299 -0.079482 -1.293499
v -6.622670 -0.079482 -0.000268
v -6.495297 -0.079482 1.292962
v -6.118074 -0.079482 2.536494
v -5.505498 -0.079482 3.682540
v -4.681110 -0.079482 4.687057
v -3.676591 -0.079482 5.511443
v -2.530544 -0.079482 6.124015
v -1.287010 -0.079482 6.501235
v 0.049787 -0.392261 4.841187
v 0.994686 -0.392261 4.748123
v 1.903273 -0.392261 4.472506
v 2.740632 -0.392261 4.024928
v 3.474583 -0.392261 3.422590
v 4.076921 -0.392261 2.688639
v 4.524498 -0.392261 1.851280
v 4.800116 -0.392261 0.942693
v 4.893180 -0.392261 -0.002206
v 4.800117 -0.392261 -0.947105
v 4.524499 -0.392261 -1.855692
v 4.076921 -0.392261 -2.693051
v 3.474583 -0.392261 -3.427003
v 2.740632 -0.392261 -4.029342
v 1.903272 -0.392261 -4.476919
v 0.994685 -0.392261 -4.752536
v 0.049785 -0.392261 -4.845600
v -0.895114 -0.392261 -4.752535
v -1.803702 -0.392261 -4.476917
v -2.641061 -0.392261 -4.029339
v -3.375012 -0.392261 -3.427001
v -3.977350 -0.392261 -2.693049
v -4.424927 -0.392261 -1.855689
v -4.700543 -0.392261 -0.947101
v -4.793607 -0.392261 -0.002202
v -4.700542 -0.392261 0.942698
v -4.424923 -0.392261 1.851285
v -3.977345 -0.392261 2.688644
v -3.375006 -0.392261 3.422594
v -2.641053 -0.392261 4.024932
v -1.803693 -0.392261 4.472508
v -0.895105 -0.392261 4.748124
v 1.299968 -0.331209 6.501210
v 0.006737 -0.331209 6.628582
v 2.543500 -0.331209 6.123988
v 3.689545 -0.331209 5.511414
v 4.694063 -0.331209 4.687028
v 5.518450 -0.331209 3.682510
v 6.131023 -0.331209 2.536464
v 6.508245 -0.331209 1.292932
v 6.635617 -0.331209 -0.000298
v 6.508245 -0.331209 -1.293528
v 6.131024 -0.331209 -2.537060
v 5.518450 -0.331209 -3.683106
v 4.694063 -0.331209 -4.687624
v 3.689545 -0.331209 -5.512011
v 2.543499 -0.331209 -6.124585
v 1.299966 -0.331209 -6.501806
v 0.006735 -0.331209 -6.629178
v -1.286496 -0.331209 -6.501805
v -2.530028 -0.331209 -6.124583
v -3.676075 -0.331209 -5.512008
v -4.680592 -0.331209 -4.687621
v -5.504978 -0.331209 -3.683103
v -6.117552 -0.331209 -2.537056
v -6.494771 -0.331209 -1.293523
v -6.622143 -0.331209 -0.000292
v -6.494770 -0.331209 1.292939
v -6.117547 -0.331209 2.536471
v -5.504971 -0.331209 3.682517
v -4.680583 -0.331209 4.687034
v -3.676064 -0.331209 5.511419
v -2.530016 -0.331209 6.123992
v -1.286483 -0.331209 6.501212
v 0.995213 -0.643987 4.748099
v 0.050314 -0.643987 4.841164
v 1.903801 -0.643987 4.472483
v 2.741159 -0.643987 4.024905
v 3.475110 -0.643987 3.422566
v 4.077449 -0.643987 2.688616
v 4.525026 -0.643987 1.851257
v 4.800643 -0.643987 0.942670
v 4.893708 -0.643987 -0.002229
v 4.800643 -0.643987 -0.947128
v 4.525026 -0.643987 -1.855715
v 4.077449 -0.643987 -2.693075
v 3.475110 -0.643987 -3.427027
v 2.741159 -0.643987 -4.029365
v 1.903800 -0.643987 -4.476942
v 0.995212 -0.643987 -4.752559
v 0.050312 -0.643987 -4.845623
v -0.894587 -0.643987 -4.752558
v -1.803175 -0.643987 -4.476941
v -2.640534 -0.643987 -4.029363
v -3.374485 -0.643987 -3.427024
v -3.976823 -0.643987 -2.693072
v -4.424400 -0.643987 -1.855712
v -4.700016 -0.643987 -0.947125
v -4.793080 -0.643987 -0.002225
v -4.700015 -0.643987 0.942674
v -4.424396 -0.643987 1.851262
v -3.976818 -0.643987 2.688621
v -3.374479 -0.643987 3.422571
v -2.640526 -0.643987 4.024909
v -1.803166 -0.643987 4.472485
v -0.894578 -0.643987 4.748101
vn -0.1118 0.9844 0.1362
vn 0.1497 0.9855 -0.0800
vn -0.0827 0.9845 0.1548
vn -0.0170 0.9848 -0.1727
vn 0.1315 0.9854 -0.1079
vn -0.0507 0.9846 0.1672
vn -0.0506 0.9847 -0.1669
vn 0.1083 0.9853 -0.1319
vn -0.0170 0.9848 0.1731
vn -0.0826 0.9845 -0.1545
vn 0.0807 0.9852 -0.1511
vn 0.0170 0.9849 0.1723
vn -0.1116 0.9844 -0.1360
vn 0.0499 0.9851 -0.1646
vn 0.0500 0.9850 0.1649
vn -0.1364 0.9843 -0.1120
vn 0.0169 0.9850 -0.1719
vn 0.0809 0.9852 0.1513
vn -0.1561 0.9842 -0.0834
vn 0.1084 0.9853 0.1321
vn -0.1697 0.9841 -0.0515
vn 0.1317 0.9854 0.1081
vn -0.1767 0.9841 -0.0174
vn 0.1498 0.9855 0.0801
vn -0.1767 0.9841 0.0174
vn 0.1623 0.9855 0.0492
vn -0.1698 0.9841 0.0515
vn 0.1686 0.9856 0.0166
vn -0.1562 0.9842 0.0835
vn 0.1685 0.9856 -0.0166
vn -0.1366 0.9843 0.1121
vn 0.1622 0.9855 -0.0492
vn 0.1118 -0.9844 -0.1362
vn -0.1497 -0.9855 0.0800
vn 0.0827 -0.9845 -0.1548
vn 0.0170 -0.9848 0.1727
vn -0.1315 -0.9854 0.1079
vn 0.0507 -0.9846 -0.1672
vn 0.0506 -0.9847 0.1669
vn -0.1083 -0.9853 0.1319
vn 0.0170 -0.9848 -0.1731
vn 0.0826 -0.9845 0.1545
vn -0.0807 -0.9852 0.1511
vn -0.0170 -0.9849 -0.1723
vn 0.1116 -0.9844 0.1360
vn -0.0499 -0.9851 0.1646
vn -0.0500 -0.9850 -0.1649
vn 0.1364 -0.9843 0.1120
vn -0.0169 -0.9850 0.1719
vn -0.0809 -0.9852 -0.1513
vn 0.1561 -0.9842 0.0834
vn -0.1084 -0.9853 -0.1321
vn 0.1697 -0.9841 0.0515
vn -0.1317 -0.9854 -0.1081
vn 0.1767 -0.9841 0.0174
vn -0.1498 -0.9855 -0.0801
vn 0.1767 -0.9841 -0.0174
vn -0.1623 -0.9855 -0.0492
vn 0.1698 -0.9841 -0.0515
vn -0.1686 -0.9856 -0.0166
vn 0.1562 -0.9842 -0.0835
vn -0.1685 -0.9856 0.0166
vn 0.1366 -0.9843 -0.1121
vn -0.1622 -0.9855 0.0492
vn 0.6344 0.0013 0.7730
vn -0.9569 -0.0020 0.2903
vn 0.7730 0.0016 0.6344
vn -0.8819 -0.0019 0.4714
vn 0.0980 0.0001 0.9952
vn 0.8819 0.0018 0.4714
vn -0.7730 -0.0017 0.6344
vn 0.2903 0.0005 0.9569
vn 0.9569 0.0020 0.2903
vn -0.6344 -0.0014 0.7730
vn 0.4714 0.0009 0.8819
vn 0.9952 0.0021 0.0980
vn -0.4714 -0.0011 0.8819
vn 0.9952 0.0021 -0.0980
vn -0.2903 -0.0007 0.9569
vn 0.9569 0.0020 -0.2903
vn -0.0980 -0.0003 0.9952
vn 0.8819 0.0019 -0.4714
vn -0.0980 -0.0001 -0.9952
vn 0.7730 0.0017 -0.6344
vn -0.2903 -0.0005 -0.9569
vn 0.6344 0.0014 -0.7730
vn -0.4714 -0.0009 -0.8819
vn 0.4714 0.0011 -0.8819
vn -0.6344 -0.0013 -0.7730
vn 0.2903 0.0007 -0.9569
vn -0.7730 -0.0016 -0.6344
vn 0.0980 0.0003 -0.9952
vn -0.8819 -0.0018 -0.4714
vn -0.9569 -0.0020 -0.2903
vn -0.9952 -0.0021 -0.0980
vn -0.9952 -0.0021 0.0980
usemtl None
s off
f 13//1 14//1 46//1 45//1
f 27//2 28//2 60//2 59//2
f 14//3 15//3 47//3 46//3
f 1//4 2//4 34//4 33//4
f 28//5 29//5 61//5 60//5
f 15//6 16//6 48//6 47//6
f 2//7 3//7 35//7 34//7
f 29//8 30//8 62//8 61//8
f 16//9 17//9 49//9 48//9
f 3//10 4//10 36//10 35//10
f 30//11 31//11 63//11 62//11
f 17//12 18//12 50//12 49//12
f 4//13 5//13 37//13 36//13
f 31//14 32//14 64//14 63//14
f 18//15 19//15 51//15 50//15
f 5//16 6//16 38//16 37//16
f 32//17 1//17 33//17 64//17
f 19//18 20//18 52//18 51//18
f 6//19 7//19 39//19 38//19
f 20//20 21//20 53//20 52//20
f 7//21 8//21 40//21 39//21
f 21//22 22//22 54//22 53//22
f 8//23 9//23 41//23 40//23
f 22//24 23//24 55//24 54//24
f 9//25 10//25 42//25 41//25
f 23//26 24//26 56//26 55//26
f 10//27 11//27 43//27 42//27
f 24//28 25//28 57//28 56//28
f 11//29 12//29 44//29 43//29
f 25//30 26//30 58//30 57//30
f 12//31 13//31 45//31 44//31
f 26//32 27//32 59//32 58//32
f 77//33 109//33 110//33 78//33
f 91//34 123//34 124//34 92//34
f 78//35 110//35 111//35 79//35
f 66//36 98//36 97//36 65//36
f 92//37 124//37 125//37 93//37
f 79//38 111//38 112//38 80//38
f 65//39 97//39 99//39 67//39
f 93//40 125//40 126//40 94//40
f 80//41 112//41 113//41 81//41
f 67//42 99//42 100//42 68//42
f 94//43 126//43 127//43 95//43
f 81//44 113//44 114//44 82//44
f 68//45 100//45 101//45 69//45
f 95//46 127//46 128//46 96//46
f 82//47 114//47 115//47 83//47
f 69//48 101//48 102//48 70//48
f 96//49 128//49 98//49 66//49
f 83//50 115//50 116//50 84//50
f 70//51 102//51 103//51 71//51
f 84//52 116//52 117//52 85//52
f 71//53 103//53 104//53 72//53
f 85//54 117//54 118//54 86//54
f 72//55 104//55 105//55 73//55
f 86//56 118//56 119//56 87//56
f 73//57 105//57 106//57 74//57
f 87//58 119//58 120//58 88//58
f 74//59 106//59 107//59 75//59
f 88//60 120//60 121//60 89//60
f 75//61 107//61 108//61 76//61
f 89//62 121//62 122//62 90//62
f 76//63 108//63 109//63 77//63
f 90//64 122//64 123//64 91//64
f 53//65 117//65 116//65 52//65
f 26//66 90//66 91//66 27//66
f 54//67 118//67 117//67 53//67
f 27//68 91//68 92//68 28//68
f 1//69 66//69 65//69 2//69
f 55//70 119//70 118//70 54//70
f 28//71 92//71 93//71 29//71
f 2//72 65//72 67//72 3//72
f 56//73 120//73 119//73 55//73
f 29//74 93//74 94//74 30//74
f 3//75 67//75 68//75 4//75
f 57//76 121//76 120//76 56//76
f 30//77 94//77 95//77 31//77
f 4//65 68//65 69//65 5//65
f 58//78 122//78 121//78 57//78
f 31//79 95//79 96//79 32//79
f 5//67 69//67 70//67 6//67
f 59//80 123//80 122//80 58//80
f 32//81 96//81 66//81 1//81
f 6//70 70//70 71//70 7//70
f 60//82 124//82 123//82 59//82
f 34//83 97//83 98//83 33//83
f 7//73 71//73 72//73 8//73
f 61//84 125//84 124//84 60//84
f 35//85 99//85 97//85 34//85
f 8//76 72//76 73//76 9//76
f 62//86 126//86 125//86 61//86
f 36//87 100//87 99//87 35//87
f 9//78 73//78 74//78 10//78
f 63//88 127//88 126//88 62//88
f 37//89 101//89 100//89 36//89
f 10//80 74//80 75//80 11//80
f 64//90 128//90 127//90 63//90
f 38//91 102//91 101//91 37//91
f 11//82 75//82 76//82 12//82
f 33//92 98//92 128//92 64//92
f 39//93 103//93 102//93 38//93
f 12//84 76//84 77//84 13//84
f 40//94 104//94 103//94 39//94
f 13//86 77//86 78//86 14//86
f 41//95 105//95 104//95 40//95
f 14//88 78//88 79//88 15//88
f 42//96 106//96 105//96 41//96
f 15//90 79//90 80//90 16//90
f 43//66 107//66 106//66 42//66
f 16//92 80//92 81//92 17//92
f 44//68 108//68 107//68 43//68
f 17//83 81//83 82//83 18//83
f 45//71 109//71 108//71 44//71
f 18//85 82//85 83//85 19//85
f 46//74 110//74 109//74 45//74
f 19//87 83//87 84//87 20//87
f 47//77 111//77 110//77 46//77
f 20//89 84//89 85//89 21//89
f 48//79 112//79 111//79 47//79
f 21//91 85//91 86//91 22//91
f 49//81 113//81 112//81 48//81
f 22//93 86//93 87//93 23//93
f 50//69 114//69 113//69 49//69
f 23//94 87//94 88//94 24//94
f 51//72 115//72 114//72 50//72
f 24//95 88//95 89//95 25//95
f 52//75 116//75 115//75 51//75
f 25//96 89//96 90//96 26//96
f 141//33 173//33 174//33 142//33
f 155//34 187//34 188//34 156//34
f 142//35 174//35 175//35 143//35
f 129//36 161//36 162//36 130//36
f 156//37 188//37 189//37 157//37
f 143//38 175//38 176//38 144//38
f 130//39 162//39 163//39 131//39
f 157//40 189//40 190//40 158//40
f 144//41 176//41 177//41 145//41
f 131//42 163//42 164//42 132//42
f 158//43 190//43 191//43 159//43
f 145//44 177//44 178//44 146//44
f 132//45 164//45 165//45 133//45
f 159//46 191//46 192//46 160//46
f 146//47 178//47 179//47 147//47
f 133//48 165//48 166//48 134//48
f 160//49 192//49 161//49 129//49
f 147//50 179//50 180//50 148//50
f 134//51 166//51 167//51 135//51
f 148//52 180//52 181//52 149//52
f 135//53 167//53 168//53 136//53
f 149//54 181//54 182//54 150//54
f 136//55 168//55 169//55 137//55
f 150//56 182//56 183//56 151//56
f 137//57 169//57 170//57 138//57
f 151//58 183//58 184//58 152//58
f 138//59 170//59 171//59 139//59
f 152//60 184//60 185//60 153//60
f 139//61 171//61 172//61 140//61
f 153//62 185//62 186//62 154//62
f 140//63 172//63 173//63 141//63
f 154//64 186//64 187//64 155//64
f 205//1 206//1 238//1 237//1
f 219//2 220//2 252//2 251//2
f 206//3 207//3 239//3 238//3
f 194//4 193//4 225//4 226//4
f 220//5 221//5 253//5 252//5
f 207//6 208//6 240//6 239//6
f 193//7 195//7 227//7 225//7
f 221//8 222//8 254//8 253//8
f 208//9 209//9 241//9 240//9
f 195//10 196//10 228//10 227//10
f 222//11 223//11 255//11 254//11
f 209//12 210//12 242//12 241//12
f 196//13 197//13 229//13 228//13
f 223//14 224//14 256//14 255//14
f 210//15 211//15 243//15 242//15
f 197//16 198//16 230//16 229//16
f 224//17 194//17 226//17 256//17
f 211//18 212//18 244//18 243//18
f 198//19 199//19 231//19 230//19
f 212//20 213//20 245//20 244//20
f 199//21 200//21 232//21 231//21
f 213//22 214//22 246//22 245//22
f 200//23 201//23 233//23 232//23
f 214//24 215//24 247//24 246//24
f 201//25 202//25 234//25 233//25
f 215//26 216//26 248//26 247//26
f 202//27 203//27 235//27 234//27
f 216//28 217//28 249//28 248//28
f 203//29 204//29 236//29 235//29
f 217//30 218//30 250//30 249//30
f 204//31 205//31 237//31 236//31
f 218//32 219//32 251//32 250//32
f 181//89 180//89 244//89 245//89
f 154//80 155//80 219//80 218//80
f 182//91 181//91 245//91 246//91
f 155//82 156//82 220//82 219//82
f 129//83 130//83 193//83 194//83
f 183//93 182//93 246//93 247//93
f 156//84 157//84 221//84 220//84
f 130//85 131//85 195//85 193//85
f 184//94 183//94 247//94 248//94
f 157//86 158//86 222//86 221//86
f 131//87 132//87 196//87 195//87
f 185//95 184//95 248//95 249//95
f 158//88 159//88 223//88 222//88
f 132//89 133//89 197//89 196//89
f 186//96 185//96 249//96 250//96
f 159//90 160//90 224//90 223//90
f 133//91 134//91 198//91 197//91
f 187//66 186//66 250//66 251//66
f 160//92 129//92 194//92 224//92
f 134//93 135//93 199//93 198//93
f 188//68 187//68 251//68 252//68
f 162//69 161//69 226//69 225//69
f 135//94 136//94 200//94 199//94
f 189//71 188//71 252//71 253//71
f 163//72 162//72 225//72 227//72
f 136//95 137//95 201//95 200//95
f 190//74 189//74 253//74 254//74
f 164//75 163//75 227//75 228//75
f 137//96 138//96 202//96 201//96
f 191//77 190//77 254//77 255//77
f 165//65 164//65 228//65 229//65
f 138//66 139//66 203//66 202//66
f 192//79 191//79 255//79 256//79
f 166//67 165//67 229//67 230//67
f 139//68 140//68 204//68 203//68
f 161//81 192//81 256//81 226//81
f 167//70 166//70 230//70 231//70
f 140//71 141//71 205//71 204//71
f 168//73 167//73 231//73 232//73
f 141//74 142//74 206//74 205//74
f 169//76 168//76 232//76 233//76
f 142//77 143//77 207//77 206//77
f 170//78 169//78 233//78 234//78
f 143//79 144//79 208//79 207//79
f 171//80 170//80 234//80 235//80
f 144//81 145//81 209//81 208//81
f 172//82 171//82 235//82 236//82
f 145//69 146//69 210//69 209//69
f 173//84 172//84 236//84 237//84
f 146//72 147//72 211//72 210//72
f 174//86 173//86 237//86 238//86
f 147//75 148//75 212//75 211//75
f 175//88 174//88 238//88 239//88
f 148//65 149//65 213//65 212//65
f 176//90 175//90 239//90 240//90
f 149//67 150//67 214//67 213//67
f 177//92 176//92 240//92 241//92
f 150//70 151//70 215//70 214//70
f 178//83 177//83 241//83 242//83
f 151//73 152//73 216//73 215//73
f 179//85 178//85 242//85 243//85
f 152//76 153//76 217//76 216//76
f 180//87 179//87 243//87 244//87
f 153//78 154//78 218//78 217//78
